# xmcd
#
# Track frame offsets:
# 150
# 23548
# 47469
# 69592
# 93011
# 115204
# 140423
# 165649
# 188270
# 211512
# 232544
# 255863
# 278527
#
# Disc length: 3969 seconds
#
#
# Revision: 0
# Processed by: cddbd v1.5.2PL0 Copyright (c) Steve Scherf et al.
# Submitted via: FreeRIP 2.945 
#
DISCID=890f7f0d
DTITLE=Boston-LM-Knowe4 - Stranger-Green-Knowe1
DYEAR=1961
DGENRE=Acid
TTITLE0=SGK 101
TTITLE1=SGK 102
TTITLE2=SGK 103
TTITLE3=SGK 104
TTITLE4=SGK 105
TTITLE5=SGK 106
TTITLE6=SGK 107
TTITLE7=SGK 108
TTITLE8=SGK 109
TTITLE9=SGK 110
TTITLE10=SGK 111
TTITLE11=SGK 112
TTITLE12=SGK 113
EXTD=A Stranger at Green Knowe 1961 - 4 CDs\nread by Simon Vance by Lucy M. Boston\n
EXTT0=
EXTT1=
EXTT2=
EXTT3=
EXTT4=
EXTT5=
EXTT6=
EXTT7=
EXTT8=
EXTT9=
EXTT10=
EXTT11=
EXTT12=
PLAYORDER=
